<?xml version="1.0" encoding="utf-8"?>
<!-- Generator: Adobe Illustrator 22.1.0, SVG Export Plug-In . SVG Version: 6.00 Build 0)  -->
<svg version="1.2" baseProfile="tiny" id="Livello_1"
	 xmlns="http://www.w3.org/2000/svg" xmlns:xlink="http://www.w3.org/1999/xlink" x="0px" y="0px" viewBox="0 0 208 70"
	 xml:space="preserve">
<g>
	<path fill="#CA4363" stroke="#CA4363" stroke-width="0.75" stroke-miterlimit="10" d="M19.1,9.5c5.6-0.6,11.8,0.4,16.2,4.2
		c2.8,2.5,4.9,6.1,5.3,9.9c0.2,2.5-0.1,5.1-0.5,7.5c2.2,2.5,4.2,5.4,4.7,8.7C47,52.2,36.8,62,20.1,59.8c-4.4-0.7-9.1-2.1-12-5.7
		c-2.1-2.3-3.3-5.3-3.5-8.4C4.3,39.5,3.9,33.2,4.3,27c0.2-3.8,0.3-7.9,2.9-11C9.7,12,14.5,10,19.1,9.5z M18.2,13.8
		c-4.6,0.6-8.9,4.2-9.4,8.9c-0.5,3.9-0.3,7.9-0.4,11.9C8.4,38.8,8.2,43,9,47.1c0.8,3,2.9,5.8,5.8,7c8.7,3.4,19.3,2.8,24.7-5.1
		c2.7-4.4,1.7-10.2-1.5-14.1c-3.4,4.2-8.7,7.3-14.2,6.6c-4.1-0.4-7.5-4.1-7.4-8.6c0-0.1,0-0.1,0-0.2c0.2-4.3,4.4-8.2,8.7-7.8
		c4.1-0.1,7.8,1.5,11.3,3.3c0.3-2.7,0.3-5.6-1.2-8C32.1,14.2,24.3,12.7,18.2,13.8z M23,29.4c-2.7,1.1-3.2,5.2-0.9,7
		c1.4,1.4,3.6,0.9,5.4,0.7c3-0.5,5.5-2.6,7.3-5C31.3,30.1,28.1,28,23,29.4z"/>
</g>
<g>
	<path fill="#5A5A5B" d="M57.3,47.6c-0.5-0.5-0.8-1.4-0.8-2.4V22.8c0-0.8,0.3-1.5,0.9-2c0.6-0.5,1.3-0.8,2.1-0.8h8
		c6.8,0,10.2,2.3,10.2,7c0,1.7-0.4,3.2-1.3,4.3c-0.9,1.2-2.2,1.9-4,2.2v0.1c2,0.3,3.6,1,4.8,2.2c1.2,1.2,1.7,2.8,1.7,4.8
		c0,1-0.2,1.9-0.7,2.8c-0.4,0.9-1.1,1.7-1.9,2.4s-1.9,1.3-3.3,1.7c-1.3,0.4-2.8,0.6-4.5,0.6h-9.1C58.6,48.4,57.8,48.1,57.3,47.6z
		 M66.5,32c2,0,3.5-0.3,4.4-0.9c0.9-0.6,1.3-1.7,1.3-3.3c0-0.6-0.1-1.1-0.2-1.6c-0.2-0.4-0.4-0.8-0.7-1s-0.6-0.5-1.1-0.6
		c-0.5-0.1-0.9-0.2-1.4-0.3c-0.5,0-1.1-0.1-1.7-0.1h-4.9V32H66.5z M67.2,44.2c1,0,1.9,0,2.6-0.1c0.7-0.1,1.3-0.3,1.8-0.6
		c0.5-0.3,0.9-0.7,1.2-1.3c0.2-0.6,0.4-1.3,0.4-2.2c0-0.7-0.1-1.4-0.3-1.9c-0.2-0.5-0.5-0.9-0.9-1.2c-0.4-0.3-0.9-0.5-1.5-0.7
		c-0.6-0.2-1.3-0.3-2-0.3c-0.7-0.1-1.5-0.1-2.5-0.1h-3.8v8.4H67.2z"/>
	<path fill="#5A5A5B" d="M87.3,47.8c-1.4-0.6-2.5-1.3-3.3-2.3c-0.8-1-1.4-2-1.9-3.2s-0.6-2.4-0.6-3.8c0-1,0.1-2.1,0.4-3
		s0.7-1.9,1.2-2.8c0.6-0.9,1.2-1.6,2-2.3c0.8-0.6,1.8-1.1,2.9-1.5c1.2-0.4,2.4-0.6,3.8-0.6c1.4,0,2.6,0.2,3.8,0.5
		c1.1,0.4,2.1,0.9,2.9,1.5c0.8,0.6,1.5,1.4,2.1,2.2s1,1.8,1.3,2.8c0.3,1,0.4,2,0.4,3.1c0,1-0.1,2-0.4,3c-0.3,1-0.7,1.9-1.2,2.7
		c-0.5,0.9-1.2,1.6-2,2.3c-0.8,0.6-1.8,1.1-2.9,1.5c-1.2,0.4-2.4,0.6-3.8,0.6C90.2,48.6,88.6,48.3,87.3,47.8z M95.9,43.5
		c1-1.2,1.4-2.8,1.4-4.9c0-2.1-0.5-3.8-1.4-5c-1-1.2-2.3-1.8-4-1.8c-1.7,0-3.1,0.6-4,1.8c-0.9,1.2-1.4,2.9-1.4,5
		c0,2.1,0.5,3.8,1.4,4.9c1,1.2,2.3,1.8,4,1.8C93.6,45.3,95,44.7,95.9,43.5z"/>
	<path fill="#5A5A5B" d="M110.4,47.8c-1.4-0.6-2.4-1.3-3.3-2.3c-0.8-1-1.4-2-1.9-3.2c-0.4-1.2-0.6-2.4-0.6-3.8c0-1,0.1-2.1,0.4-3
		s0.7-1.9,1.2-2.8c0.6-0.9,1.2-1.6,2-2.3c0.8-0.6,1.8-1.1,2.9-1.5s2.4-0.6,3.8-0.6c1.4,0,2.6,0.2,3.8,0.5c1.1,0.4,2.1,0.9,2.9,1.5
		c0.8,0.6,1.5,1.4,2.1,2.2c0.6,0.9,1,1.8,1.3,2.8c0.3,1,0.4,2,0.4,3.1c0,1-0.1,2-0.4,3c-0.3,1-0.7,1.9-1.2,2.7
		c-0.5,0.9-1.2,1.6-2,2.3c-0.8,0.6-1.8,1.1-2.9,1.5c-1.2,0.4-2.4,0.6-3.8,0.6C113.3,48.6,111.8,48.3,110.4,47.8z M119.1,43.5
		c1-1.2,1.4-2.8,1.4-4.9c0-2.1-0.5-3.8-1.4-5c-1-1.2-2.3-1.8-4-1.8s-3.1,0.6-4,1.8c-0.9,1.2-1.4,2.9-1.4,5c0,2.1,0.5,3.8,1.4,4.9
		c1,1.2,2.3,1.8,4,1.8C116.8,45.3,118.1,44.7,119.1,43.5z"/>
	<path fill="#5A5A5B" d="M129.7,47.7c-0.5-0.5-0.7-1.2-0.7-2V22.8c0-0.9,0.2-1.5,0.7-2s1.1-0.7,1.8-0.7c0.7,0,1.3,0.2,1.8,0.7
		c0.5,0.5,0.7,1.2,0.7,2v22.8c0,0.9-0.2,1.5-0.7,2c-0.5,0.5-1.1,0.7-1.8,0.7C130.7,48.4,130.1,48.1,129.7,47.7z"/>
	<path fill="#5A5A5B" d="M143.4,45.3v0.7c0,0.8-0.2,1.4-0.7,1.8s-1,0.6-1.8,0.6c-0.7,0-1.3-0.3-1.8-0.8s-0.7-1.2-0.7-2V22.7
		c0-0.8,0.2-1.5,0.7-2c0.5-0.5,1.1-0.7,1.8-0.7c0.7,0,1.3,0.2,1.8,0.7c0.5,0.5,0.7,1.1,0.7,2v8.9c1.3-2.1,3.4-3.1,6.3-3.1
		c2.7,0,4.8,0.9,6.5,2.7c1.6,1.8,2.4,4.2,2.4,7.3c0,1.9-0.3,3.7-1,5.2c-0.7,1.5-1.7,2.8-3,3.7c-1.3,0.9-2.9,1.4-4.6,1.4
		C146.9,48.6,144.7,47.5,143.4,45.3z M150.7,44.9c0.6-0.3,1.1-0.7,1.4-1.1c0.4-0.5,0.7-1,0.9-1.6c0.2-0.6,0.4-1.2,0.5-1.8
		s0.1-1.2,0.1-1.9c0-0.7-0.1-1.3-0.2-2c-0.1-0.6-0.3-1.2-0.5-1.8c-0.2-0.6-0.6-1.1-0.9-1.5s-0.8-0.8-1.4-1s-1.2-0.4-2-0.4
		c-1.2,0-2.2,0.3-3,0.9c-0.8,0.6-1.4,1.4-1.7,2.4s-0.5,2.1-0.5,3.4c0,2.3,0.4,4,1.2,5.1c0.8,1.2,2.2,1.7,4.1,1.7
		C149.5,45.3,150.1,45.2,150.7,44.9z"/>
	<path fill="#5A5A5B" d="M162.7,47.7c-0.5-0.5-0.7-1.1-0.7-2V31.2c0-0.8,0.2-1.4,0.7-1.8c0.5-0.4,1.1-0.6,1.8-0.6
		c0.7,0,1.3,0.2,1.8,0.6c0.5,0.4,0.7,1,0.7,1.8v0.7c0.6-1.1,1.4-2,2.5-2.5c1.1-0.6,2.4-0.9,4-0.9c1,0,1.8,0.2,2.7,0.5
		c0.8,0.3,1.6,0.8,2.3,1.4c0.7,0.6,1.2,1.4,1.6,2.4c0.4,1,0.6,2.1,0.6,3.4v9.7c0,0.9-0.2,1.5-0.7,2c-0.5,0.5-1.1,0.7-1.8,0.7
		c-0.7,0-1.3-0.2-1.7-0.7c-0.5-0.5-0.7-1.1-0.7-2v-9.7c0-1.3-0.4-2.4-1.1-3.1c-0.7-0.7-1.6-1.1-2.7-1.1c-1.3,0-2.5,0.5-3.4,1.6
		c-1,1-1.4,2.4-1.4,4v8.3c0,0.9-0.2,1.5-0.7,2c-0.5,0.5-1.1,0.7-1.8,0.7S163.1,48.1,162.7,47.7z"/>
	<path fill="#5A5A5B" d="M189.8,45.3v0.7c0,0.8-0.2,1.4-0.7,1.8c-0.4,0.4-1,0.6-1.8,0.6c-0.7,0-1.3-0.3-1.8-0.8s-0.7-1.2-0.7-2V22.7
		c0-0.8,0.2-1.5,0.7-2c0.5-0.5,1.1-0.7,1.8-0.7c0.7,0,1.3,0.2,1.8,0.7c0.5,0.5,0.7,1.1,0.7,2v8.9c1.3-2.1,3.4-3.1,6.3-3.1
		c2.7,0,4.8,0.9,6.5,2.7c1.6,1.8,2.4,4.2,2.4,7.3c0,1.9-0.3,3.7-1,5.2c-0.7,1.5-1.7,2.8-3,3.7c-1.3,0.9-2.9,1.4-4.6,1.4
		C193.3,48.6,191.1,47.5,189.8,45.3z M197.1,44.9c0.6-0.3,1.1-0.7,1.4-1.1c0.4-0.5,0.7-1,0.9-1.6c0.2-0.6,0.4-1.2,0.5-1.8
		c0.1-0.6,0.1-1.2,0.1-1.9c0-0.7-0.1-1.3-0.2-2s-0.3-1.2-0.5-1.8c-0.2-0.6-0.6-1.1-0.9-1.5s-0.8-0.8-1.4-1s-1.2-0.4-2-0.4
		c-1.2,0-2.2,0.3-3,0.9s-1.4,1.4-1.7,2.4c-0.3,1-0.5,2.1-0.5,3.4c0,2.3,0.4,4,1.2,5.1c0.8,1.2,2.2,1.7,4.1,1.7
		C195.8,45.3,196.5,45.2,197.1,44.9z"/>
</g>
</svg>
