<?xml version="1.0" encoding="utf-8"?>
<!-- Generator: Adobe Illustrator 22.1.0, SVG Export Plug-In . SVG Version: 6.00 Build 0)  -->
<svg version="1.2" baseProfile="tiny" id="Livello_1"
	 xmlns="http://www.w3.org/2000/svg" xmlns:xlink="http://www.w3.org/1999/xlink" x="0px" y="0px" viewBox="0 0 41.8 51.5"
	 xml:space="preserve">
<g>
	<path fill="#CA4363" stroke="#CA4363" stroke-width="0.75" stroke-miterlimit="10" d="M15.3,0.5C20.9-0.1,27.1,1,31.6,4.7
		c2.8,2.5,4.9,6.1,5.3,9.9c0.2,2.5-0.1,5.1-0.5,7.5c2.2,2.5,4.2,5.4,4.7,8.7c2.2,12.3-8.1,22.1-24.8,19.9c-4.4-0.7-9.1-2.1-12-5.7
		c-2.1-2.3-3.3-5.3-3.5-8.4C0.5,30.5,0.1,24.2,0.6,18C0.7,14.2,0.9,10,3.4,7C6,3,10.7,1,15.3,0.5z M14.4,4.8C9.9,5.4,5.6,9,5,13.7
		c-0.5,3.9-0.3,7.9-0.4,11.9c0.1,4.2-0.1,8.4,0.6,12.5c0.8,3,2.9,5.8,5.8,7c8.7,3.4,19.3,2.8,24.7-5.1c2.7-4.4,1.7-10.2-1.5-14.1
		c-3.4,4.2-8.7,7.3-14.2,6.6c-4.1-0.4-7.5-4.1-7.4-8.6c0-0.1,0-0.1,0-0.2c0.2-4.3,4.4-8.2,8.7-7.8c4.1-0.1,7.8,1.5,11.3,3.3
		c0.3-2.7,0.3-5.6-1.2-8C28.4,5.2,20.6,3.7,14.4,4.8z M19.3,20.4c-2.7,1.1-3.2,5.2-0.9,7c1.4,1.4,3.6,0.9,5.4,0.7
		c3-0.5,5.5-2.6,7.3-5C27.5,21.1,24.4,19,19.3,20.4z"/>
</g>
<g>
	<path fill="#5A5A5B" d="M53.5,38.6c-0.5-0.5-0.8-1.4-0.8-2.4V13.8c0-0.8,0.3-1.5,0.9-2c0.6-0.5,1.3-0.8,2.1-0.8h8
		c6.8,0,10.2,2.3,10.2,7c0,1.7-0.4,3.2-1.3,4.3c-0.9,1.2-2.2,1.9-4,2.2v0.1c2,0.3,3.6,1,4.8,2.2c1.2,1.2,1.7,2.8,1.7,4.8
		c0,1-0.2,1.9-0.7,2.8c-0.4,0.9-1.1,1.7-1.9,2.4s-1.9,1.3-3.3,1.7c-1.3,0.4-2.8,0.6-4.5,0.6h-9.1C54.8,39.4,54.1,39.1,53.5,38.6z
		 M62.8,22.9c2,0,3.5-0.3,4.4-0.9c0.9-0.6,1.3-1.7,1.3-3.3c0-0.6-0.1-1.1-0.2-1.6c-0.2-0.4-0.4-0.8-0.7-1s-0.6-0.5-1.1-0.6
		c-0.5-0.1-0.9-0.2-1.4-0.3c-0.5,0-1.1-0.1-1.7-0.1h-4.9v7.8H62.8z M63.4,35.2c1,0,1.9,0,2.6-0.1c0.7-0.1,1.3-0.3,1.8-0.6
		c0.5-0.3,0.9-0.7,1.2-1.3c0.2-0.6,0.4-1.3,0.4-2.2c0-0.7-0.1-1.4-0.3-1.9c-0.2-0.5-0.5-0.9-0.9-1.2c-0.4-0.3-0.9-0.5-1.5-0.7
		c-0.6-0.2-1.3-0.3-2-0.3c-0.7-0.1-1.5-0.1-2.5-0.1h-3.8v8.4H63.4z"/>
	<path fill="#5A5A5B" d="M83.5,38.8c-1.4-0.6-2.5-1.3-3.3-2.3c-0.8-1-1.4-2-1.9-3.2s-0.6-2.4-0.6-3.8c0-1,0.1-2.1,0.4-3
		s0.7-1.9,1.2-2.8c0.6-0.9,1.2-1.6,2-2.3c0.8-0.6,1.8-1.1,2.9-1.5c1.2-0.4,2.4-0.6,3.8-0.6c1.4,0,2.6,0.2,3.8,0.5
		c1.1,0.4,2.1,0.9,2.9,1.5c0.8,0.6,1.5,1.4,2.1,2.2s1,1.8,1.3,2.8c0.3,1,0.4,2,0.4,3.1c0,1-0.1,2-0.4,3c-0.3,1-0.7,1.9-1.2,2.7
		c-0.5,0.9-1.2,1.6-2,2.3c-0.8,0.6-1.8,1.1-2.9,1.5c-1.2,0.4-2.4,0.6-3.8,0.6C86.4,39.6,84.9,39.3,83.5,38.8z M92.2,34.5
		c1-1.2,1.4-2.8,1.4-4.9c0-2.1-0.5-3.8-1.4-5c-1-1.2-2.3-1.8-4-1.8c-1.7,0-3.1,0.6-4,1.8c-0.9,1.2-1.4,2.9-1.4,5
		c0,2.1,0.5,3.8,1.4,4.9c1,1.2,2.3,1.8,4,1.8C89.9,36.2,91.2,35.7,92.2,34.5z"/>
	<path fill="#5A5A5B" d="M106.7,38.8c-1.4-0.6-2.4-1.3-3.3-2.3c-0.8-1-1.4-2-1.9-3.2c-0.4-1.2-0.6-2.4-0.6-3.8c0-1,0.1-2.1,0.4-3
		s0.7-1.9,1.2-2.8c0.6-0.9,1.2-1.6,2-2.3c0.8-0.6,1.8-1.1,2.9-1.5s2.4-0.6,3.8-0.6c1.4,0,2.6,0.2,3.8,0.5c1.1,0.4,2.1,0.9,2.9,1.5
		c0.8,0.6,1.5,1.4,2.1,2.2c0.6,0.9,1,1.8,1.3,2.8c0.3,1,0.4,2,0.4,3.1c0,1-0.1,2-0.4,3c-0.3,1-0.7,1.9-1.2,2.7
		c-0.5,0.9-1.2,1.6-2,2.3c-0.8,0.6-1.8,1.1-2.9,1.5c-1.2,0.4-2.4,0.6-3.8,0.6C109.6,39.6,108,39.3,106.7,38.8z M115.3,34.5
		c1-1.2,1.4-2.8,1.4-4.9c0-2.1-0.5-3.8-1.4-5c-1-1.2-2.3-1.8-4-1.8s-3.1,0.6-4,1.8c-0.9,1.2-1.4,2.9-1.4,5c0,2.1,0.5,3.8,1.4,4.9
		c1,1.2,2.3,1.8,4,1.8C113,36.2,114.4,35.7,115.3,34.5z"/>
	<path fill="#5A5A5B" d="M125.9,38.6c-0.5-0.5-0.7-1.2-0.7-2V13.8c0-0.9,0.2-1.5,0.7-2s1.1-0.7,1.8-0.7c0.7,0,1.3,0.2,1.8,0.7
		c0.5,0.5,0.7,1.2,0.7,2v22.8c0,0.9-0.2,1.5-0.7,2c-0.5,0.5-1.1,0.7-1.8,0.7C127,39.4,126.4,39.1,125.9,38.6z"/>
	<path fill="#5A5A5B" d="M139.7,36.2v0.7c0,0.8-0.2,1.4-0.7,1.8s-1,0.6-1.8,0.6c-0.7,0-1.3-0.3-1.8-0.8s-0.7-1.2-0.7-2V13.7
		c0-0.8,0.2-1.5,0.7-2c0.5-0.5,1.1-0.7,1.8-0.7c0.7,0,1.3,0.2,1.8,0.7c0.5,0.5,0.7,1.1,0.7,2v8.9c1.3-2.1,3.4-3.1,6.3-3.1
		c2.7,0,4.8,0.9,6.5,2.7c1.6,1.8,2.4,4.2,2.4,7.3c0,1.9-0.3,3.7-1,5.2c-0.7,1.5-1.7,2.8-3,3.7c-1.3,0.9-2.9,1.4-4.6,1.4
		C143.1,39.6,140.9,38.5,139.7,36.2z M146.9,35.9c0.6-0.3,1.1-0.7,1.4-1.1c0.4-0.5,0.7-1,0.9-1.6c0.2-0.6,0.4-1.2,0.5-1.8
		s0.1-1.2,0.1-1.9c0-0.7-0.1-1.3-0.2-2c-0.1-0.6-0.3-1.2-0.5-1.8c-0.2-0.6-0.6-1.1-0.9-1.5s-0.8-0.8-1.4-1s-1.2-0.4-2-0.4
		c-1.2,0-2.2,0.3-3,0.9c-0.8,0.6-1.4,1.4-1.7,2.4s-0.5,2.1-0.5,3.4c0,2.3,0.4,4,1.2,5.1c0.8,1.2,2.2,1.7,4.1,1.7
		C145.7,36.3,146.4,36.2,146.9,35.9z"/>
	<path fill="#5A5A5B" d="M158.9,38.6c-0.5-0.5-0.7-1.1-0.7-2V22.1c0-0.8,0.2-1.4,0.7-1.8c0.5-0.4,1.1-0.6,1.8-0.6
		c0.7,0,1.3,0.2,1.8,0.6c0.5,0.4,0.7,1,0.7,1.8v0.7c0.6-1.1,1.4-2,2.5-2.5c1.1-0.6,2.4-0.9,4-0.9c1,0,1.8,0.2,2.7,0.5
		c0.8,0.3,1.6,0.8,2.3,1.4c0.7,0.6,1.2,1.4,1.6,2.4c0.4,1,0.6,2.1,0.6,3.4v9.7c0,0.9-0.2,1.5-0.7,2c-0.5,0.5-1.1,0.7-1.8,0.7
		c-0.7,0-1.3-0.2-1.7-0.7c-0.5-0.5-0.7-1.1-0.7-2v-9.7c0-1.3-0.4-2.4-1.1-3.1c-0.7-0.7-1.6-1.1-2.7-1.1c-1.3,0-2.5,0.5-3.4,1.6
		c-1,1-1.4,2.4-1.4,4v8.3c0,0.9-0.2,1.5-0.7,2c-0.5,0.5-1.1,0.7-1.8,0.7S159.4,39.1,158.9,38.6z"/>
	<path fill="#5A5A5B" d="M186.1,36.2v0.7c0,0.8-0.2,1.4-0.7,1.8c-0.4,0.4-1,0.6-1.8,0.6c-0.7,0-1.3-0.3-1.8-0.8s-0.7-1.2-0.7-2V13.7
		c0-0.8,0.2-1.5,0.7-2c0.5-0.5,1.1-0.7,1.8-0.7c0.7,0,1.3,0.2,1.8,0.7c0.5,0.5,0.7,1.1,0.7,2v8.9c1.3-2.1,3.4-3.1,6.3-3.1
		c2.7,0,4.8,0.9,6.5,2.7c1.6,1.8,2.4,4.2,2.4,7.3c0,1.9-0.3,3.7-1,5.2c-0.7,1.5-1.7,2.8-3,3.7c-1.3,0.9-2.9,1.4-4.6,1.4
		C189.5,39.6,187.3,38.5,186.1,36.2z M193.3,35.9c0.6-0.3,1.1-0.7,1.4-1.1c0.4-0.5,0.7-1,0.9-1.6c0.2-0.6,0.4-1.2,0.5-1.8
		c0.1-0.6,0.1-1.2,0.1-1.9c0-0.7-0.1-1.3-0.2-2s-0.3-1.2-0.5-1.8c-0.2-0.6-0.6-1.1-0.9-1.5s-0.8-0.8-1.4-1s-1.2-0.4-2-0.4
		c-1.2,0-2.2,0.3-3,0.9s-1.4,1.4-1.7,2.4c-0.3,1-0.5,2.1-0.5,3.4c0,2.3,0.4,4,1.2,5.1c0.8,1.2,2.2,1.7,4.1,1.7
		C192.1,36.3,192.7,36.2,193.3,35.9z"/>
</g>
</svg>
